<svg width="24" height="24" viewBox="0 0 24 24" fill="none" xmlns="http://www.w3.org/2000/svg">
<g clip-path="url(#clip0_106_57)">
<path d="M23.1356 13.1525L18.9596 14.2855L16.9996 13.1625V10.8875L18.9566 9.7655L23.1356 10.8995L23.9206 7.9995L20.5916 7.0995L21.4916 3.7705L18.5996 2.9845L17.4656 7.1625L15.5996 8.2325L13.4996 7.0195V5.2195L16.5606 2.1585L14.4386 0.0415039L11.9996 2.4805L9.56061 0.0415039L7.43861 2.1625L10.4996 5.2235V7.0235L8.39961 8.2325L6.53361 7.1635L5.39961 2.9845L2.50561 3.7705L3.40561 7.0995L0.0786133 7.9995L0.863613 10.8995L5.04261 9.7655L6.99961 10.8875V13.1625L5.04061 14.2855L0.863613 13.1525L0.0786133 16.0475L3.40761 16.9475L2.50761 20.2775L5.40161 21.0625L6.53561 16.8855L8.56961 15.7215L10.4996 16.8355V18.7755L7.43861 21.8365L9.56061 23.9575L11.9996 21.5185L14.4386 23.9575L16.5606 21.8365L13.4996 18.7755V16.8355L15.4296 15.7215L17.4656 16.8885L18.5996 21.0655L21.4936 20.2805L20.5936 16.9505L23.9226 16.0505L23.1356 13.1525ZM13.9996 13.0825L11.9996 14.2365L9.99961 13.0825V10.7725L11.9996 9.6185L13.9996 10.7725V13.0825Z" fill="#424241"/>
</g>
<defs>
<clipPath id="clip0_106_57">
<rect width="24" height="24" fill="white"/>
</clipPath>
</defs>
</svg>
