<svg width="24" height="24" viewBox="0 0 24 24" fill="none" xmlns="http://www.w3.org/2000/svg">
<g clip-path="url(#clip0_106_51)">
<path d="M22.3748 0.065C21.0368 0.12 9.17884 0.721 4.91984 4.979C3.24208 6.67 2.22178 8.90351 2.042 11.2788C1.86222 13.6541 2.53471 16.0157 3.93884 17.94L0.00683594 21.879L2.12784 24L6.05984 20.061C7.98418 21.4649 10.3458 22.1373 12.721 21.9575C15.0962 21.7777 17.3297 20.7576 19.0208 19.08C23.3628 14.738 23.8888 2.946 23.9348 1.616L23.9908 0L22.3748 0.065ZM16.8998 16.958C15.7742 18.0768 14.3018 18.7798 12.7242 18.9519C11.1465 19.124 9.55716 18.7548 8.21684 17.905L16.9368 9.186L14.8138 7.064L6.09984 15.784C5.24912 14.4441 4.87899 12.8549 5.05015 11.277C5.22131 9.69917 5.9236 8.22629 7.04184 7.1C9.55384 4.587 16.7798 3.505 20.8418 3.168C20.5228 7.206 19.4648 14.393 16.8998 16.958Z" fill="#424241"/>
</g>
<defs>
<clipPath id="clip0_106_51">
<rect width="24" height="24" fill="white"/>
</clipPath>
</defs>
</svg>
