<svg width="24" height="24" viewBox="0 0 24 24" fill="none" xmlns="http://www.w3.org/2000/svg">
<g clip-path="url(#clip0_106_54)">
<path d="M1.77013 6.21537C1.25131 6.36217 0.795953 6.67714 0.475578 7.11083C0.155203 7.54451 -0.0120354 8.07233 0.000131603 8.61137C0.0227048 9.26048 0.299632 9.87468 0.771132 10.3214L4.00013 13.5484V20.0004H10.4481L13.7131 23.2674C13.9362 23.4931 14.2019 23.6724 14.4947 23.7948C14.7875 23.9171 15.1018 23.9802 15.4191 23.9804C15.6277 23.9803 15.8354 23.9534 16.0371 23.9004C16.4484 23.7965 16.8248 23.5855 17.128 23.2888C17.4312 22.9921 17.6504 22.6203 17.7631 22.2114L24.0001 -0.015625L1.77013 6.21537ZM3.53313 8.85637L16.7421 5.15637L7.00013 14.9004V12.3264L3.53313 8.85637ZM15.1331 20.4564L11.6751 17.0004H9.10013L18.8341 7.25937L15.1331 20.4564Z" fill="#424241"/>
</g>
<defs>
<clipPath id="clip0_106_54">
<rect width="24" height="24" fill="white"/>
</clipPath>
</defs>
</svg>
